<svg width="56" height="56" viewBox="0 0 56 56" fill="none" xmlns="http://www.w3.org/2000/svg">
<path d="M31.71 17.29L21 28L31.71 38.7333L35 35.42L27.58 28L35 20.58M44.3333 7C45.571 7 46.758 7.49167 47.6332 8.36683C48.5083 9.242 49 10.429 49 11.6667V44.3333C49 45.571 48.5083 46.758 47.6332 47.6332C46.758 48.5083 45.571 49 44.3333 49H11.6667C10.429 49 9.242 48.5083 8.36683 47.6332C7.49167 46.758 7 45.571 7 44.3333V11.6667C7 10.429 7.49167 9.242 8.36683 8.36683C9.242 7.49167 10.429 7 11.6667 7H44.3333Z" fill="#FF6600"/>
</svg>
