<svg width="20" height="20" viewBox="0 0 20 20" fill="none" xmlns="http://www.w3.org/2000/svg">
<path d="M13.2 9.975C13.2 10.6063 13.0123 11.2235 12.6607 11.7484C12.3091 12.2733 11.8093 12.6824 11.2246 12.924C10.6399 13.1656 9.99645 13.2288 9.37571 13.1057C8.75497 12.9825 8.18479 12.6785 7.73726 12.2321C7.28973 11.7857 6.98496 11.2169 6.86149 10.5977C6.73801 9.97854 6.80138 9.33674 7.04359 8.75347C7.28579 8.17021 7.69594 7.67169 8.22218 7.32095C8.74841 6.97021 9.3671 6.783 10 6.783C10.8479 6.78563 11.6603 7.12277 12.2598 7.72082C12.8594 8.31887 13.1974 9.12924 13.2 9.975V9.975ZM20 5.586V14.364C20 15.8455 19.41 17.2663 18.3598 18.3139C17.3096 19.3615 15.8852 19.95 14.4 19.95H5.6C4.11479 19.95 2.69041 19.3615 1.6402 18.3139C0.589998 17.2663 0 15.8455 0 14.364V5.586C0 4.1045 0.589998 2.68368 1.6402 1.6361C2.69041 0.588523 4.11479 0 5.6 0H14.4C15.8852 0 17.3096 0.588523 18.3598 1.6361C19.41 2.68368 20 4.1045 20 5.586V5.586ZM14.8 9.975C14.8 9.02802 14.5185 8.10231 13.9911 7.31493C13.4636 6.52755 12.714 5.91386 11.8369 5.55147C10.9598 5.18907 9.99468 5.09425 9.06357 5.279C8.13246 5.46375 7.27718 5.91976 6.60589 6.58937C5.9346 7.25899 5.47744 8.11213 5.29223 9.04091C5.10702 9.96969 5.20208 10.9324 5.56538 11.8073C5.92868 12.6822 6.54391 13.43 7.33326 13.9561C8.12262 14.4822 9.05065 14.763 10 14.763C11.273 14.763 12.4939 14.2586 13.3941 13.3606C14.2943 12.4627 14.8 11.2449 14.8 9.975ZM16.4 4.788C16.4 4.55126 16.3296 4.31983 16.1978 4.12298C16.0659 3.92614 15.8785 3.77271 15.6592 3.68212C15.4399 3.59152 15.1987 3.56781 14.9659 3.614C14.7331 3.66019 14.5193 3.77419 14.3515 3.94159C14.1836 4.109 14.0694 4.32228 14.0231 4.55448C13.9768 4.78667 14.0005 5.02735 14.0913 5.24607C14.1822 5.4648 14.336 5.65174 14.5333 5.78327C14.7307 5.9148 14.9627 5.985 15.2 5.985C15.5183 5.985 15.8235 5.85889 16.0485 5.63441C16.2736 5.40993 16.4 5.10546 16.4 4.788Z" fill="white"/>
</svg>
