<svg width="56" height="56" viewBox="0 0 56 56" fill="none" xmlns="http://www.w3.org/2000/svg">
<path d="M24.29 38.71L35 28L24.29 17.2667L21 20.58L28.42 28L21 35.42M11.6667 49C10.429 49 9.24201 48.5083 8.36684 47.6332C7.49167 46.758 7 45.571 7 44.3333L7 11.6667C7 10.429 7.49167 9.24201 8.36684 8.36684C9.24201 7.49167 10.429 7 11.6667 7L44.3333 7C45.571 7 46.758 7.49167 47.6332 8.36684C48.5083 9.24201 49 10.429 49 11.6667L49 44.3333C49 45.571 48.5083 46.758 47.6332 47.6332C46.758 48.5083 45.571 49 44.3333 49L11.6667 49Z" fill="#353398"/>
</svg>
