<svg width="21" height="19" viewBox="0 0 21 19" fill="none" xmlns="http://www.w3.org/2000/svg">
<path d="M20.5791 3.13659C20.4653 2.53491 20.2428 1.98619 19.9339 1.54505C19.625 1.10391 19.2404 0.785738 18.8183 0.622202C17.2535 0.00997697 10.9929 1.08157e-05 10.9929 1.08157e-05C10.9929 1.08157e-05 4.73331 -0.00995592 3.16742 0.575217C2.74564 0.746279 2.36181 1.06895 2.05277 1.51225C1.74374 1.95556 1.51987 2.50461 1.40267 3.1067C0.989961 5.33633 0.985963 9.96076 0.985963 9.96076C0.985963 9.96076 0.981966 14.608 1.39168 16.8148C1.62151 18.035 2.29604 18.9989 3.15343 19.3278C4.73431 19.94 10.9779 19.95 10.9779 19.95C10.9779 19.95 17.2385 19.96 18.8034 19.3762C19.2256 19.213 19.6105 18.8955 19.9202 18.4553C20.2299 18.015 20.4536 17.4673 20.5691 16.8661C20.9828 14.6379 20.9858 10.0149 20.9858 10.0149C20.9858 10.0149 21.0058 5.36623 20.5791 3.13659V3.13659ZM8.9903 14.2449L8.9953 5.70224L14.1986 9.9807L8.9903 14.2449V14.2449Z" fill="white"/>
</svg>
